<svg width="270" height="294" viewBox="0 0 270 294" fill="none" xmlns="http://www.w3.org/2000/svg">
<path d="M122.5 2.5L52.5 44C42.5 49.6667 20.8 62.1 14 66.5C7.2 70.9 11.1667 76.6667 14 79C49 98.8333 120.4 139.6 126 144C132.4 145.2 142 143.5 146 142.5C180.667 122.167 251.4 80.9 257 78.5C260.2 73.3 258.333 69 257 67.5C223.333 47.3333 153.8 6.1 145 2.5C136.2 -1.1 126.333 0.999999 122.5 2.5Z" fill="black" stroke="black"/>
<path d="M92.5 75.5L76 66C86.5 54 97.8333 48.6667 106 44C121.5 37.5 141 37.5 148.5 41C160.263 46.4894 160 55 158 60.5C156.4 64.9 156.667 68.3333 157 69.5L162 74L138 86.5C137.5 86.1667 135.6 84.7 132 81.5C128.8 80.7 130.667 69.1667 132 63.5C132.833 62.8333 132 59 130 56.5C112.4 48.9 97.6667 66 92.5 75.5Z" fill="white" stroke="black"/>
<path d="M170 78L147.5 90.5L165.5 101L188.5 88L170 78Z" fill="white" stroke="black"/>
<path d="M13 92.5C4.19999 88.9 1.66666 94.6667 1.49999 98C1.66666 126.667 1.89999 188 1.49999 204C1.09999 220 9.33333 229.333 13.5 232C41 247.667 99.5 281.2 113.5 290C126.7 296.8 129 288.833 128.5 284V172C128.5 163.6 122.167 156.5 119 154C89 136.5 25.8 99.7 13 92.5Z" fill="black" stroke="black"/>
<path d="M36 136V155C43.5 153.5 57.7403 157.294 62 162.5C71 173.5 67.5 179.5 59.5 183.5C48.5 183.5 47.5 193.5 47.5 200L68.5 211C69 206.5 69 205.5 72.5 202C92 198 87.5 185 87.5 179C82.3 151.4 51 138.833 36 136Z" fill="white" stroke="black"/>
<path d="M47.5 208.5V230L68.5 242.5V220.5L47.5 208.5Z" fill="white" stroke="black"/>
<path d="M268.5 102.5C270.1 89.3 259.833 91 254.5 93.5C227.667 109.167 170.1 142.8 154.5 152C145.7 156.4 142.5 166.833 142 171.5V281C139.6 293.8 148.667 293.333 153.5 291.5C184 273.5 247.3 236.3 256.5 231.5C265.7 226.7 268.333 216.5 268.5 212V102.5Z" fill="black" stroke="black"/>
<path d="M183 167.5V186C187.833 180.5 198.4 169.1 202 167.5C213.5 157.5 222 169.5 207.5 186C195.9 199.2 194.667 212.167 195.5 217L216 205.5V198C228 180.4 233.333 168.333 234.5 164.5C235 163.333 235.7 158.5 234.5 148.5C227.3 130.9 197.167 153.833 183 167.5Z" fill="white" stroke="black"/>
<path d="M195 226V248V248.5L216 236V213.5L195 226Z" fill="white" stroke="black"/>
</svg>

